<svg xmlns="http://www.w3.org/2000/svg" width="121" height="120" viewBox="0 0 121 120" fill="none"><g clip-path="url(#clip0_2690_3868)"><path d="M14.522 26.9376C18.1235 26.9376 21.0431 24.018 21.0431 20.4165C21.0431 16.815 18.1235 13.8954 14.522 13.8954C10.9205 13.8954 8.00092 16.815 8.00092 20.4165C8.00092 24.018 10.9205 26.9376 14.522 26.9376Z" fill="#F2F2F2"></path><path d="M14.5223 28.9582C9.82155 28.9582 6.00092 25.1376 6.00092 20.4368C6.00092 15.736 9.80155 11.8954 14.5223 11.8954C19.2431 11.8954 23.0438 15.716 23.0438 20.4168C23.0438 25.1176 19.2231 28.9382 14.5223 28.9382V28.9582ZM14.5223 15.9161C12.0219 15.9161 10.0016 17.9364 10.0016 20.4368C10.0016 22.9372 12.0219 24.9576 14.5223 24.9576C17.0228 24.9576 19.0431 22.9372 19.0431 20.4368C19.0431 17.9364 17.0228 15.9161 14.5223 15.9161Z" fill="#7C7C7C"></path><path d="M26.7435 38.2384C28.3231 38.2384 29.6035 36.958 29.6035 35.3784C29.6035 33.7989 28.3231 32.5184 26.7435 32.5184C25.164 32.5184 23.8835 33.7989 23.8835 35.3784C23.8835 36.958 25.164 38.2384 26.7435 38.2384Z" fill="white"></path><path d="M26.7435 40.2384C24.0635 40.2384 21.8835 38.0584 21.8835 35.3784C21.8835 32.6984 24.0635 30.5184 26.7435 30.5184C29.4235 30.5184 31.6035 32.6984 31.6035 35.3784C31.6035 38.0584 29.4235 40.2384 26.7435 40.2384ZM26.7435 34.5184C26.2635 34.5184 25.8835 34.8984 25.8835 35.3784C25.8835 35.8584 26.2635 36.2384 26.7435 36.2384C27.2235 36.2384 27.6035 35.8584 27.6035 35.3784C27.6035 34.8984 27.2235 34.5184 26.7435 34.5184Z" fill="#BCBEC0"></path><path d="M94.2548 38.2384C95.8343 38.2384 97.1148 36.958 97.1148 35.3784C97.1148 33.7989 95.8343 32.5184 94.2548 32.5184C92.6753 32.5184 91.3948 33.7989 91.3948 35.3784C91.3948 36.958 92.6753 38.2384 94.2548 38.2384Z" fill="white"></path><path d="M94.2548 40.2384C91.5748 40.2384 89.3948 38.0584 89.3948 35.3784C89.3948 32.6984 91.5748 30.5184 94.2548 30.5184C96.9348 30.5184 99.1148 32.6984 99.1148 35.3784C99.1148 38.0584 96.9348 40.2384 94.2548 40.2384ZM94.2548 34.5184C93.7748 34.5184 93.3948 34.8984 93.3948 35.3784C93.3948 35.8584 93.7748 36.2384 94.2548 36.2384C94.7348 36.2384 95.1148 35.8584 95.1148 35.3784C95.1148 34.8984 94.7348 34.5184 94.2548 34.5184Z" fill="#BCBEC0"></path><path d="M106.477 26.9374C110.079 26.9374 112.998 24.0178 112.998 20.4164C112.998 16.8149 110.079 13.8953 106.477 13.8953C102.876 13.8953 99.9562 16.8149 99.9562 20.4164C99.9562 24.0178 102.876 26.9374 106.477 26.9374Z" fill="#F2F2F2"></path><path d="M106.478 28.9581C101.777 28.9581 97.9562 25.1375 97.9562 20.4367C97.9562 15.7359 101.777 11.9153 106.478 11.9153C111.178 11.9153 114.999 15.7359 114.999 20.4367C114.999 25.1375 111.178 28.9581 106.478 28.9581ZM106.478 15.9159C103.977 15.9159 101.957 17.9363 101.957 20.4367C101.957 22.9371 103.977 24.9575 106.478 24.9575C108.978 24.9575 110.998 22.9371 110.998 20.4367C110.998 17.9363 108.978 15.9159 106.478 15.9159Z" fill="#7C7C7C"></path><path d="M14.522 107.511C18.1235 107.511 21.0431 104.591 21.0431 100.99C21.0431 97.3883 18.1235 94.4688 14.522 94.4688C10.9205 94.4688 8.00092 97.3883 8.00092 100.99C8.00092 104.591 10.9205 107.511 14.522 107.511Z" fill="#F2F2F2"></path><path d="M14.5223 109.512C9.82155 109.512 6.00092 105.691 6.00092 100.99C6.00092 96.2894 9.82155 92.4688 14.5223 92.4688C19.2231 92.4688 23.0438 96.2894 23.0438 100.99C23.0438 105.691 19.2231 109.512 14.5223 109.512ZM14.5223 96.4694C12.0219 96.4694 10.0016 98.4898 10.0016 100.99C10.0016 103.491 12.0219 105.511 14.5223 105.511C17.0228 105.511 19.0431 103.491 19.0431 100.99C19.0431 98.4898 17.0228 96.4694 14.5223 96.4694Z" fill="#7C7C7C"></path><path d="M26.7435 88.8869C28.3231 88.8869 29.6035 87.6064 29.6035 86.0269C29.6035 84.4473 28.3231 83.1669 26.7435 83.1669C25.164 83.1669 23.8835 84.4473 23.8835 86.0269C23.8835 87.6064 25.164 88.8869 26.7435 88.8869Z" fill="white"></path><path d="M26.7435 90.8869C24.0635 90.8869 21.8835 88.7069 21.8835 86.0269C21.8835 83.3469 24.0635 81.1669 26.7435 81.1669C29.4235 81.1669 31.6035 83.3469 31.6035 86.0269C31.6035 88.7069 29.4235 90.8869 26.7435 90.8869ZM26.7435 85.1669C26.2635 85.1669 25.8835 85.5469 25.8835 86.0269C25.8835 86.5069 26.2635 86.8869 26.7435 86.8869C27.2235 86.8869 27.6035 86.5069 27.6035 86.0269C27.6035 85.5469 27.2235 85.1669 26.7435 85.1669Z" fill="#BCBEC0"></path><path d="M94.2548 88.8869C95.8343 88.8869 97.1148 87.6064 97.1148 86.0269C97.1148 84.4473 95.8343 83.1669 94.2548 83.1669C92.6753 83.1669 91.3948 84.4473 91.3948 86.0269C91.3948 87.6064 92.6753 88.8869 94.2548 88.8869Z" fill="white"></path><path d="M94.2548 90.8869C91.5748 90.8869 89.3948 88.7069 89.3948 86.0269C89.3948 83.3469 91.5748 81.1669 94.2548 81.1669C96.9348 81.1669 99.1148 83.3469 99.1148 86.0269C99.1148 88.7069 96.9348 90.8869 94.2548 90.8869ZM94.2548 85.1669C93.7748 85.1669 93.3948 85.5469 93.3948 86.0269C93.3948 86.5069 93.7748 86.8869 94.2548 86.8869C94.7348 86.8869 95.1148 86.5069 95.1148 86.0269C95.1148 85.5469 94.7348 85.1669 94.2548 85.1669Z" fill="#BCBEC0"></path><path d="M106.477 107.511C110.079 107.511 112.998 104.591 112.998 100.99C112.998 97.3883 110.079 94.4688 106.477 94.4688C102.876 94.4688 99.9562 97.3883 99.9562 100.99C99.9562 104.591 102.876 107.511 106.477 107.511Z" fill="#F2F2F2"></path><path d="M106.478 109.512C101.777 109.512 97.9562 105.691 97.9562 100.99C97.9562 96.2894 101.777 92.4688 106.478 92.4688C111.178 92.4688 114.999 96.2894 114.999 100.99C114.999 105.691 111.178 109.512 106.478 109.512ZM106.478 96.4694C103.977 96.4694 101.957 98.4898 101.957 100.99C101.957 103.491 103.977 105.511 106.478 105.511C108.978 105.511 110.998 103.491 110.998 100.99C110.998 98.4898 108.978 96.4694 106.478 96.4694Z" fill="#7C7C7C"></path><path d="M24.7037 60.9232V51.1015C24.7037 50.2014 24.2236 49.3813 23.4435 48.9412L14.8421 44.0204C14.0819 43.5803 13.1418 43.5803 12.3616 44.0204L3.76021 48.9412C2.98008 49.3813 2.5 50.2014 2.5 51.1015V60.9232C2.5 61.8233 2.98008 62.6435 3.76021 63.0835L12.3616 68.0044C13.1218 68.4444 14.0619 68.4444 14.8421 68.0044L23.4435 63.0835C24.2236 62.6435 24.7037 61.8233 24.7037 60.9232Z" fill="#F2F2F2"></path><path d="M13.6022 70.3251C12.8221 70.3251 12.0619 70.125 11.3618 69.725L2.76038 64.8041C1.36014 64.004 0.5 62.5038 0.5 60.9035V51.0819C0.5 49.4816 1.36014 47.9813 2.76038 47.1812L11.3618 42.2604C12.742 41.4803 14.4423 41.4803 15.8226 42.2604L24.424 47.1812C25.8242 47.9813 26.6844 49.4816 26.6844 51.0819V60.9035C26.6844 62.5038 25.8242 64.004 24.424 64.8041L15.8226 69.725C15.1424 70.125 14.3623 70.3251 13.5822 70.3251H13.6022ZM13.6022 45.681C13.6022 45.681 13.4422 45.701 13.3621 45.741L4.76071 50.6618C4.60068 50.7418 4.52067 50.9218 4.52067 51.0819V60.9035C4.52067 61.0835 4.62069 61.2436 4.76071 61.3236L13.3621 66.2444C13.5222 66.3244 13.7022 66.3244 13.8422 66.2444L22.4437 61.3236C22.6037 61.2436 22.6837 61.0635 22.6837 60.9035V51.0819C22.6837 50.9018 22.5837 50.7418 22.4437 50.6618L13.8422 45.741C13.8422 45.741 13.6822 45.681 13.6022 45.681Z" fill="#7C7C7C"></path><path d="M118.519 60.9232V51.1015C118.519 50.2014 118.039 49.3813 117.259 48.9412L108.658 44.0204C107.898 43.5803 106.957 43.5803 106.177 44.0204L97.5758 48.9412C96.7957 49.3813 96.3156 50.2014 96.3156 51.1015V60.9232C96.3156 61.8233 96.7957 62.6435 97.5758 63.0835L106.177 68.0044C106.937 68.4444 107.878 68.4444 108.658 68.0044L117.259 63.0835C118.039 62.6435 118.519 61.8233 118.519 60.9232Z" fill="#F2F2F2"></path><path d="M107.418 70.3251C106.638 70.3251 105.878 70.125 105.177 69.725L96.576 64.8041C95.1758 64.004 94.3156 62.5038 94.3156 60.9035V51.0819C94.3156 49.4816 95.1758 47.9813 96.576 47.1812L105.177 42.2604C106.558 41.4803 108.258 41.4803 109.638 42.2604L118.24 47.1812C119.64 47.9813 120.5 49.4816 120.5 51.0819V60.9035C120.5 62.5038 119.64 64.004 118.24 64.8041L109.638 69.725C108.958 70.125 108.178 70.3251 107.398 70.3251H107.418ZM107.418 45.681C107.418 45.681 107.258 45.701 107.178 45.741L98.5763 50.6618C98.4163 50.7418 98.3363 50.9218 98.3363 51.0819V60.9035C98.3363 61.0835 98.4363 61.2436 98.5763 61.3236L107.178 66.2444C107.338 66.3244 107.518 66.3244 107.658 66.2444L116.259 61.3236C116.419 61.2436 116.499 61.0635 116.499 60.9035V51.0819C116.499 50.9018 116.399 50.7418 116.259 50.6618L107.658 45.741C107.658 45.741 107.498 45.681 107.418 45.681Z" fill="#7C7C7C"></path><path d="M9.6012 53.3415L13.4012 51.2815L17.3212 53.3415" fill="white"></path><path d="M17.3212 55.3415C17.0012 55.3415 16.6812 55.2615 16.4012 55.1215L13.4212 53.5615L10.5612 55.1215C9.58121 55.6415 8.38121 55.2815 7.84121 54.3215C7.32121 53.3415 7.68121 52.1415 8.64121 51.6015L12.4412 49.5415C13.0212 49.2215 13.7412 49.2215 14.3212 49.5415L18.2412 51.6015C19.2212 52.1215 19.6012 53.3215 19.0812 54.3015C18.7212 54.9815 18.0212 55.3615 17.3012 55.3615L17.3212 55.3415Z" fill="#7C7C7C"></path><path d="M103.437 53.3416L107.237 51.2816L111.157 53.3416" fill="white"></path><path d="M111.157 55.3416C110.837 55.3416 110.517 55.2616 110.237 55.1016L107.257 53.5416L104.397 55.1016C103.417 55.6216 102.217 55.2616 101.677 54.3016C101.157 53.3216 101.517 52.1216 102.477 51.5816L106.277 49.5216C106.857 49.2016 107.577 49.2016 108.157 49.5216L112.077 51.5816C113.057 52.1016 113.437 53.3016 112.917 54.2816C112.557 54.9616 111.857 55.3416 111.137 55.3416H111.157Z" fill="#7C7C7C"></path><path d="M53.0088 26.9178C52.3086 26.9178 51.6485 26.5577 51.2685 25.9176C50.7084 24.9575 51.0484 23.7373 52.0086 23.1772L59.8299 18.6764C60.45 18.3164 61.2101 18.3164 61.8102 18.6764L68.9914 22.7571C69.9516 23.2972 70.2916 24.5174 69.7316 25.4776C69.1915 26.4377 67.9713 26.7778 67.0111 26.2177L60.8301 22.6971L54.0089 26.6177C53.6889 26.7978 53.3488 26.8778 53.0088 26.8778V26.9178Z" fill="black"></path><path d="M44.2673 44.4208L46.8277 45.881C47.6278 41.9404 51.1284 38.9599 55.2891 38.9599C60.1499 38.9599 64.0306 42.8405 64.0306 47.6013V51.682C64.0306 51.682 64.0506 51.682 64.0706 51.682L76.7927 44.4008C78.1929 43.6006 79.0531 42.1004 79.0531 40.5001V24.5174C79.0531 22.8972 78.1929 21.4169 76.7927 20.6168L62.7704 12.5955C61.3901 11.7953 59.6898 11.7953 58.2896 12.5955L44.2673 20.6168C42.867 21.4169 42.0069 22.9172 42.0069 24.5174V40.5001C42.0069 42.1204 42.867 43.6006 44.2673 44.4008V44.4208Z" fill="#D9242A"></path><path d="M49.3478 109.631V96.4091H81.2131V109.631" fill="#D9242A"></path><path d="M83.2138 109.632H79.2131V98.4097H51.3285V109.632H47.3278V96.4094C47.3278 95.3092 48.228 94.4091 49.3282 94.4091H81.2135C82.3136 94.4091 83.2138 95.3092 83.2138 96.4094V109.632Z" fill="black"></path><path d="M66.411 78.5064C65.3108 78.5064 64.4107 77.6062 64.4107 76.5061V60.2233C64.4107 59.3232 63.6706 58.5831 62.7704 58.5831C61.7702 58.5831 61.0301 59.3232 61.0301 60.2233C61.0301 61.3235 60.13 62.2237 59.0298 62.2237C57.9296 62.2237 57.0294 61.3235 57.0294 60.2233C57.0294 57.1028 59.5699 54.5824 62.6704 54.5824C65.7709 54.5824 68.4113 57.1228 68.4113 60.2233V76.5061C68.4113 77.6062 67.5112 78.5064 66.411 78.5064Z" fill="black"></path><path d="M73.7922 78.5064C72.6921 78.5064 71.7919 77.6063 71.7919 76.5061V63.5839C71.7919 62.6838 71.0518 61.9437 70.1516 61.9437C69.1515 61.9437 68.4113 62.6838 68.4113 63.5839C68.4113 64.6841 67.5112 65.5843 66.411 65.5843C65.3108 65.5843 64.4107 64.6841 64.4107 63.5839C64.4107 60.4634 66.9511 57.943 70.0516 57.943C73.1521 57.943 75.7926 60.4834 75.7926 63.5839V76.5061C75.7926 77.6063 74.8924 78.5064 73.7922 78.5064Z" fill="black"></path><path d="M78.473 98.4098C78.273 98.4098 78.0729 98.3898 77.8929 98.3298C76.8327 98.0097 76.2326 96.8895 76.5727 95.8294C78.273 90.2684 79.1931 81.727 79.1931 76.5061V67.4246C79.1931 66.5245 78.453 65.7844 77.5528 65.7844C76.5527 65.7844 75.8126 66.5245 75.8126 67.4246C75.8126 68.5248 74.9124 69.425 73.8122 69.425C72.712 69.425 71.8119 68.5248 71.8119 67.4246C71.8119 64.3041 74.3523 61.7837 77.4528 61.7837C80.5533 61.7837 83.1938 64.3241 83.1938 67.4246V76.5061C83.1938 82.0071 82.2136 91.0686 80.4133 96.9896C80.1533 97.8497 79.3531 98.4098 78.493 98.4098H78.473Z" fill="black"></path><path d="M53.3088 98.4098C52.6087 98.4098 51.9286 98.0297 51.5485 97.3896C51.4685 97.2296 42.9471 81.907 39.3465 75.806C37.9263 73.3856 37.5062 71.1852 38.1263 69.2649C38.6064 67.7846 39.7666 66.5444 41.2068 65.9243C42.0469 65.5643 43.7672 65.1042 45.9276 65.9843C47.2478 66.5244 48.488 67.5046 49.6282 68.8848V47.6213C49.6282 44.5008 52.1686 41.9803 55.2691 41.9803C58.3697 41.9803 61.0101 44.5208 61.0101 47.6213V76.5261C61.0101 77.6263 60.11 78.5264 59.0098 78.5264C57.9096 78.5264 57.0094 77.6263 57.0094 76.5261V47.6213C57.0094 46.7211 56.2693 45.981 55.3692 45.981C54.369 45.981 53.6289 46.7211 53.6289 47.6213V76.5261C53.6289 77.4863 52.9488 78.3064 52.0086 78.4864C51.0684 78.6665 50.1283 78.1464 49.7682 77.2662C47.5479 71.7053 45.4475 70.145 44.3873 69.705C43.5672 69.3649 42.9871 69.5249 42.7871 69.625C42.687 69.665 42.127 69.925 41.9269 70.5451C41.6869 71.2852 41.9869 72.4454 42.7871 73.8056C46.4077 79.9667 54.9491 95.3292 55.0291 95.4893C55.5692 96.4494 55.2091 97.6696 54.249 98.2097C53.9489 98.3697 53.6089 98.4698 53.2888 98.4698L53.3088 98.4098Z" fill="black"></path><path d="M65.2705 107.751C64.7305 107.751 64.2305 107.551 63.8505 107.171C63.4705 106.791 63.2705 106.291 63.2705 105.751C63.2705 105.211 63.4905 104.711 63.8505 104.331C64.3105 103.871 65.0105 103.651 65.6505 103.791C65.7705 103.831 65.9105 103.851 66.0305 103.911C66.1505 103.971 66.2705 104.031 66.3705 104.091C66.4905 104.171 66.5905 104.251 66.6905 104.351C67.0705 104.731 67.2705 105.231 67.2705 105.771C67.2705 106.311 67.0705 106.811 66.6905 107.191C66.3105 107.571 65.8105 107.771 65.2705 107.771V107.751Z" fill="white"></path><path d="M55.8289 36.6382C54.7289 36.6382 53.8289 35.7382 53.8289 34.6382V31.5582C53.8289 30.4582 54.7289 29.5582 55.8289 29.5582C56.9289 29.5582 57.8289 30.4582 57.8289 31.5582V34.6382C57.8289 35.7382 56.9289 36.6382 55.8289 36.6382Z" fill="white"></path><path d="M62.1299 38.9987C61.6699 38.9987 61.2099 38.8387 60.8299 38.5187C59.9899 37.7987 59.9099 36.5387 60.6299 35.6987L62.9299 33.0387C63.6499 32.1987 64.9099 32.1187 65.7499 32.8387C66.5899 33.5587 66.6699 34.8187 65.9499 35.6587L63.6499 38.3187C63.2499 38.7787 62.6899 39.0187 62.1299 39.0187V38.9987Z" fill="white"></path><path d="M49.6275 38.9988C49.0675 38.9988 48.5075 38.7588 48.1075 38.2988L45.8075 35.6388C45.0875 34.7988 45.1675 33.5388 46.0075 32.8188C46.8475 32.0988 48.1075 32.1788 48.8275 33.0188L51.1275 35.6788C51.8475 36.5188 51.7675 37.7788 50.9275 38.4988C50.5475 38.8188 50.0875 38.9788 49.6275 38.9788V38.9988Z" fill="white"></path><path d="M43.2671 46.161L46.6477 48.1013V47.6213C46.6477 46.321 46.9477 45.0808 47.4678 43.9607L45.2475 42.7004C44.4673 42.2604 43.9872 41.4202 43.9872 40.5401V24.5574C43.9872 23.6573 44.4673 22.8371 45.2475 22.3971L59.2698 14.3757C59.6498 14.1557 60.0899 14.0557 60.51 14.0557C60.9301 14.0557 61.3701 14.1757 61.7502 14.3757L75.7725 22.3971C76.5527 22.8371 77.0327 23.6773 77.0327 24.5574V40.5401C77.0327 41.4402 76.5527 42.2604 75.7725 42.7004L64.0106 49.4416V51.722C64.9507 51.862 65.8109 52.162 66.631 52.5621L77.7729 46.181C79.7932 45.0208 81.0534 42.8605 81.0534 40.5401V24.5574C81.0534 22.237 79.7932 20.0767 77.7729 18.9165L63.7505 10.8551C61.7502 9.71495 59.2898 9.71495 57.2895 10.8551L43.2671 18.8765C41.2468 20.0367 39.9866 22.197 39.9866 24.5174V40.5001C39.9866 42.8205 41.2468 44.9808 43.2671 46.141V46.161Z" fill="black"></path></g><defs><clipPath id="clip0_2690_3868"><rect width="120" height="120" fill="white" transform="translate(0.5)"></rect></clipPath></defs></svg>